<svg id="Layer_1" xmlns="http://www.w3.org/2000/svg" viewBox="0 0 370 8"><style>.st0{fill:#fff}</style><path class="st0" d="M170.7 6.4l-.2.6.4.4.3-1-.5-.1zM171.7 5.9l.1.1-.1-.3zM171.6 5.3l.1.4v-.4z"/><path class="st0" d="M171.3 5.9l.3-.6-.3-.1zM295.8 5.5l.2-.3-.4-.3zM359.7 4.8l-.3.2h.9l.3.3.1-.5zM294 4.6l-2.4.2-.3.2 2.9 1.1V4.6zM296 5.2h.7l-.2-.6zM351 5.2l1.1.3.3-.7-1.5-.2zM360.7 4.8h.1v-.2zM234.6 4.6l-1-.1-.1.4h1.1l.2-.4zM290.8 4.5l-2.7.1.2.4 2.2.5.6-1zM309.5 4.5l-1.6.3-4.7-.3-1.1 1 2.8.1 1.1-.3.4.3.3-.4.8.3 2.2-.2v-.8zM353.2 4.8l.4.2.2-.4-.4-.1zM321.6 4.8l-2.2-.2-2.2.4-.3-.2-.5.2-.4-.4-.7-.1-1.7.4-1-.3-.2.4-.4-.2-.5.2-.2-.2-1 .2 1.2.6 2.3-.1 2 .2.6-.4.5.3 2.3.1.2-.2h.6l.3.2.8-.7.4.3 2.2.3 2.2-.1 1 .4.3-.4.3.2.2-.2 1.3-.2.7-.3-.3-.2-.4-.3-2.2.4-.7-.4-1.7.1-1.1-.3zM366 4.3l-.9.6-.4-.4h-3.5l-.2.3.8.5h1.7l4.4.3 2.1-.1V4.3zM125.3 4.2l.3.6.1-.6zM235.7 5l1.2-.1.2-.6-1-.1zM241.6 4.2l-1.4.1-.2.3.8.3 1.1-.4v-.3zM299.5 4.8h-2.2l.4.7 2.2.1.3-1.4zM345.6 4.5l-2.1-.2-.3.5-.2-.3h-7.1l-.3.3-1.1-.3-3.9.1-.6.7 2.6.3h4.4l2.1-.4.3.3 2.2-.2 4.3.3.8-.6.7.3.1-.8-.5-.3zM125.7 4.2h.9l-.7-.1zM238.7 4.1l-.7.2v.6h1.1v-.8zM300.2 4.1v.1l.1-.1zM123.9 4.2l-.9-.3v.4l.4.5 1-.6-.3-.3zM247.6 4.2h1.1l-1.1-.3z"/><path class="st0" d="M352.4 4.8h.1l.2.1v-1zM131.7 3.9l.1.2h.3l-.3-.3zM218.9 4.1l-.5-.3-.9.3-1.2-.3-.3.3-1.8.1-2.1-.4-.2.4-.6-.3-1.1.3-2.1-.4-.3.3-.8-.2.2.7.4.3.8-.6v.5l.4.2.8-.2V5l.6-.2.6.4h2.2l.5.3 1-.5 2.9.2 4.2.3 2.2-.3h4.3l.2.3 3.8-.7.3-.5h-.3l-.7.2-4-.6-1 .4-.7-.4-.7.3-3.4-.3-2.1.2-.3-.3zM237.1 4.3h.6l-.4-.5zM350.7 3.8l-.4.1-.5 1.4.6-.1v.3h.3l-.1-.5.5-1.2zM353.8 4.6h.4l.1.2-.1-1zM124.9 3.8l.3.4-.3-.7zM128.1 3.7l.1.5.7.4 2.4-.3.4-.4-.4-.4zM251 3.5l-.2.4-1 .3-.1.6.5-.3 3.2.4h4.4l.3.3.6-.3.2.3h4l4.3.1.5-.3 1.2.6.3-.4h.7l.4-.3 3.4.4.6.3.6-.3.2.3.3-.4h1.5l.3.3.6-.3.8.3 3.5-.2h4l1.1.3-.2-1.1v.3h-.2l-1.3-.3-2.3.1-2.3-.3-4.2-.1-4.5.1-4.3.2h-4.4l-4.3-.6-.8.4-.3-.2h-5.8l-.7-.6zM140.8 3.9l-.8-.4h-4.4l-.3.3h-2.4l.5.7h2.3l.4.3 1-.5.6.2h4.2l.5-.3.8.3 1.1-.4.6.5.2-.4.6-.1.4.7.1-.7-.5-.6-3.1-.1zM151.4 3.8h-.6l-.1-.3-1-.3-.6.7-.5.2-.3.4 2.2-.2.2.3h.4l.4.6.7-.9 2.1.2.2-.6-.2-.1-1-.1-.4.2-.4-.8zM160.2 3.5l-1.5-.1.3.5 2 .6.6-.6h-.6l-.1-.5-.4-.3zM162.2 3.5l-.2.3 1.3.4.4.4.4-.3 1.8-.2.3-.4-1 .2-2.9-.8zM347.5 4.5h.3l-.1-1.4zM91.3 3.4l-.6.8.3.1 1.4.6 4.3.3L101 5l4.5.5v.4l1.1-.6.2.3.5.1.7-.5 1.1.5 1-.7 2.5.2 2.2-.4 4.3.1 1.8-.4.4.3.7-.2.4-.7-.3-.5-1.6.1-2.1-.3-1.1.5-4.3-.5-.7.3-.7-.3-1.6.5-1.1-.6-3.4.4-.4-.3-1.1-.1-.4.3-1.4-.3h-4.4L93.5 3zM81.4 2.8l-4.1.2-1.1-.3-.9.4-1.5-.3-4.4.2-.4-.3-.3.3-3.2.5-.4-.1v-.6l-.5.7-2.1-.5-2.4.1-.9-.3-.2.3-.1-.3-.6.2v.5l-.3.3-1.2-.6-.1-.4-.9.2-.1-.3-1.9.4-2.1-.1-.3.2-.6-.2h-4.5l-.2.2-.8.2-.3.4-.4-.7-.5-.1v.5l-.3-.3-2.9-.1-4.7-.3-4.6.2-4.2.2-.1.5-.5.1-.5-.3H25l.1-.3-.8-.2-1.1.1-3.5.1L19 3l-3.3.4-.9.7.2.4 2.9.3 1-.5.5.5 2.2-.3 1 .3h2.2l.4-.3.2.4h.5l.6-.8.4.2.1.6h.3l4.4-.1 4.5.2 1.8-.4 4.1.3 3.8-.3.5.3 2.4-.1.8.2.6-.2 4.2.2 1.6-.4.7-.8v.3h.5v.5h.8l.3.3.6-.1L61 5v-.1l.2.1 2-.4.8.6.4-.3 2.2-.1.3.2 1.1-.2 3.6.2 1.9-.4 4.2.3h4.4l2.1.3 2.1-.2 4.3-.2.1-.6-.5-.5.1-.6-1.5-.3h-2.2l-4.5.2-.2-.3zM155.4 3.2l-.6-.1-.1.4.8.7.1.6 1.8-.7.6.2v-.2l-.7-1.4zM173.6 2.7l-.2.7-1.3-.4-.8.4-.4-.4-2.2.2-1.1-.1-.9.3-.3.9-.2.2h2.2l.8.4.4-.3.3.3.3 1.1.3-.7 1.3-.8.9.5.4-.2h1.7l.2-.5v.3l1-.3 1.2.3.9-.4.3.3h1.9l.5-.7.3.5 1 .2.8-.3 1.7.3h4.3l4.4.3 1-.5.3.6.8-.3.8.6 1.8-.4 2.1.5 6.6-.4-.2-.6-2.7-.4-4.4-.4-1 .2-.8-.6h-3l-4.2.3-.7-.6-.3.3-1.5.3-.4.4-.4-.3-.6.2-1.6-.3-.3.3-.3-.3-1.1.4-3.2-.1-1.1-.6-3.9.3-.9-.3v-.4zM0 2.4l.2 1.9 4-.1.4.8 2.1-.4.8.3.3-.3 2.9.3 2.2-.3.4-.4 1-.3V3l-.4.1H10l-2.2-.3L4 3l-.2-.7zM152.3.6l-.4.1-.3.2.2.5z"/></svg>