<svg id="Layer_1" xmlns="http://www.w3.org/2000/svg" viewBox="0 0 300 300"><style>.st0{fill:#c85248}.st1{fill:#be1e2d}</style><path class="st0" d="M285.4 157.3c0-.3 0-.5-.1-.8-.1-1.7-.4-2.7-.6-2.2-.7 1.6-1.3 3.4-1.9 5.5-.3 1.1-.7 2.2-1 3.4-.4 1.2-.7 2.4-1.1 3.7-.3 1.3-.8 2.6-1.2 3.9-.4 1.4-.8 2.8-1.3 4.2-.5 1.4-1 2.9-1.5 4.3-.5 1.5-1.1 3-1.6 4.5-2.2 5.7-4.5 12.2-7.5 18.8-3 6.7-6.7 13.5-11.2 20-4.3 6.4-9 11.5-13.7 15.5-.2.1-.2.2-.2.2-.6.5-1.2 1-1.9 1.7-1.2.9-2.3 1.8-3.5 2.7-.8.6-1.6 1.1-2.4 1.6-.8.5-1.5 1-2.3 1.5-1.6.9-3 1.8-4.5 2.5s-2.9 1.4-4.2 1.9c-1.3.6-2.7 1-4 1.5-.9.3-1.8.5-2.6.8l-2.7.6c-.9.2-1.9.4-2.8.6-1 .2-2 .4-3.1.7-4.3 1.1-9.5 2.9-17.2 6-1.1.5-2.3.9-3.4 1.3s-2.2.9-3.4 1.2c-1.1.4-2.3.7-3.4 1.1l-1.7.6-1.7.5c-1.1.3-2.3.6-3.4.9-1.1.3-2.3.5-3.4.8-2.3.6-4.6.9-6.9 1.3-1.2.2-2.3.3-3.5.4-1.2.1-2.4.3-3.5.4-1.2.1-2.4.1-3.6.2-1.2.1-2.4.1-3.6 0-1.2 0-2.4-.1-3.6-.1-1.2 0-2.4-.2-3.6-.3-1.2-.1-2.4-.2-3.7-.4-1.2-.2-2.4-.4-3.7-.7-6.8-1.5-12.8-3.4-18.7-5.6-5.9-2.3-11.5-5-17.6-8.5-.9-.5-2.9-1.9-5-3.3-1.1-.7-2.1-1.5-3-2.2-.9-.7-1.8-1.2-2.3-1.6-6.6-4.4-13-10.1-18.4-15.9-5.5-5.8-10.1-11.5-13.9-15.6-5-7.3-7.8-13.5-10.1-19.3-.6-1.4-1.2-2.9-1.7-4.3-.5-1.5-1.1-2.9-1.6-4.4-.5-1.5-1-3-1.6-4.5-.5-1.6-1-3.2-1.6-4.9-2.8-8.6-4.7-17.8-5.3-27.6-.6-9.8.3-20.2 3.2-30.9 1.7-6.1 3.8-11.8 6.4-17.3 2.6-5.4 5.7-10.5 9.2-15.5.6-.9 1.8-2.2 3.2-3.8.7-.8 1.5-1.6 2.4-2.4.8-.8 1.7-1.7 2.6-2.5 1.8-1.6 3.7-3.3 5.4-4.6.8-.7 1.6-1.3 2.3-1.8.7-.5 1.3-.9 1.8-1.3.9-.6 1.8-1.3 2.7-2 .9-.7 1.9-1.4 2.8-2.2 1.9-1.6 4-3.2 6-4.9 1-.8 2.1-1.6 3.1-2.4l1.5-1.2c.5-.4 1-.8 1.5-1.1 1-.8 2-1.5 2.9-2.2.9-.7 1.9-1.3 2.7-2 5.3-4.1 11.2-7.7 17.7-10.7 6.6-3 13.9-5.5 22.1-7.2 2.9-.4 5.8-.7 8.7-.8 2.9-.2 5.9 0 9.2-.1 7.8-.1 14.5.2 21 .8 3.3.3 6.4.8 9.7 1.3 1.6.3 3.2.7 4.8 1 1.6.3 3.3.9 4.9 1.3 6.2 2 11.3 4.2 15.7 6.3 1.1.5 2.1 1 3.1 1.5s1.9 1 2.8 1.5c.9.5 1.8.9 2.6 1.4.8.5 1.6.9 2.3 1.4l2.1 1.2c.7.4 1.2.8 1.8 1.2 1.2.7 2.2 1.4 3.1 2 1.8 1.2 3.2 2.2 4.2 2.9 1.1.7 1.8 1.2 2.3 1.6s.8.5 1 .6c.4.2.4.2.8.6 2.1 1.7 3.1 3.3 4.4 4.9 1.3 1.6 2.4 3.5 4.6 6 5.9 6.7 11.4 13.5 15.1 18.2 5.4 6.9 10.5 15.4 14.4 25.1 1 2.4 1.8 5 2.6 7.5.4 1.3.7 2.6 1.1 3.9.3 1.3.7 2.6.9 4 .1.6.2 1.1.3 1.7.2 2.5.5 5.3 1.1 8.8.1.6.2 1.3.3 2 0 1.4.1 2.7.1 4.1 0-.3.1-.6.1-.9v.3c.1.9.2 1.8.2 2.5s.1 1.2.2 1.5c.1 1.9.1 5.4.3 5.1.3.2.6-2.2.8-3.6.1-1 .2-1.9.3-2.9.1-.9.1-1.9.2-2.8.1-.9.1-1.8.2-2.8l.1-1.4v-1.4-5.6c-.1-1.9-.2-3.8-.4-5.8-.9-9.5-3.2-19.4-6.9-29.2-.5-1.2-.9-2.5-1.4-3.7-.5-1.2-1.1-2.4-1.6-3.7l-.8-1.8-.9-1.8c-.6-1.2-1.2-2.4-1.9-3.6-.6-1.2-1.4-2.4-2.1-3.6-.7-1.2-1.4-2.4-2.2-3.6-1.5-2.3-3.1-4.7-4.8-6.9-.7-.9-1.3-1.7-2-2.5s-1.4-1.5-2-2.2c-1.4-1.4-2.7-2.8-4.1-4.1-1.7-1.6-3.3-3.3-5.2-5-.9-.9-1.8-1.7-2.8-2.6-1-.8-1.9-1.7-2.9-2.6-1.9-1.8-4-3.3-6.1-4.8-1-.8-2.1-1.4-3.1-2.1-1-.7-2.1-1.3-3.1-1.9-1.1-.6-2.9-1.7-4.1-2.7-5.9-4.7-12-8.9-18.6-12.5-6.5-3.6-13.4-6.7-20.9-9.3-1.2-.4-2.7-1-4.6-1.5-1.9-.5-4.1-1.1-6.5-1.6-4.8-1-10.5-2-16.2-2.4l-4.2-.3c-1.4 0-2.8-.1-4.1-.1-1.4 0-2.7-.1-4-.1-1.3 0-2.5.1-3.7.1-1.2 0-2.3 0-3.3.1s-2 .2-2.9.2c-1.8.2-3.2.2-4.2.4-8 1-14.5 2.8-19.7 4.4-2.6.9-4.9 1.8-6.9 2.5-2 .9-3.7 1.7-5.1 2.4-1.5.7-2.6 1.4-3.6 1.9-1 .6-1.7 1-2.3 1.4-.2.1-.3.2-.5.3-1.3.6-2.6 1.3-3.9 2-.4.3-1.4.8-2.3 1.4-1 .6-1.9 1.2-2.3 1.5-1.5.8-2.8 1.5-4 2.1-1.3.7-2.5 1.4-3.9 2.1-2.2 1-4.6 2.4-7.1 3.8-1.3.7-2.5 1.6-3.8 2.4-1.3.9-2.6 1.7-3.9 2.7-5.2 3.8-10.5 8.6-15.6 13.7S35.2 68.1 31 73.7l-3 4.2-2.7 4.2c-.9 1.3-1.7 2.7-2.5 4-.8 1.3-1.6 2.6-2.4 3.8-2.4 4.5-6 11.3-8 18.3-.4 1.3-.8 2.7-1.2 4.2-.4 1.5-.8 2.9-1.2 4.4-.3 1.5-.6 2.9-.9 4.3-.3 1.4-.5 2.7-.7 3.8-1 8.6-.7 16.7 0 24.4v-1.2c0-.8 0-1.9.1-3.3.1-1.7.3-3.8.5-5.9-.2 5.9 0 11.5.6 16.8.3 2.3.5 4.1.7 5.6.3 1.5.5 2.6.7 3.6.2 1 .3 1.8.4 2.7.1.8.2 1.7.3 2.7.3 1.6 2.6 6 6.3 16.9.7 1.9 1.4 4 2.1 6.1.7 2.1 1.6 4.3 2.3 6.5.8 2.1 1.8 4.2 2.6 6.2.9 2 1.9 3.7 2.8 5.3.2.4.4.8.7 1.3.3.4.5.9.8 1.4.6 1 1.2 2 1.9 3.2.6 1.2 1.4 2.3 2.2 3.6.8 1.2 1.6 2.6 2.5 3.9 3.6 5.4 8.2 11.3 13.2 16.8s10.5 10.6 15.7 14.7c1.3 1.1 2.6 2 3.8 2.9 1.2.9 2.4 1.8 3.5 2.5 1.1.8 2.2 1.5 3.2 2.1.5.3 1 .6 1.4.9.5.3.9.5 1.3.8 6.3 3.8 12.1 6.6 17.4 8.9 1.3.6 2.7 1.1 3.9 1.7 1.3.5 2.6 1 3.8 1.4 2.5 1 5 1.7 7.4 2.5 9.7 3 18.8 5.1 30.1 6.4 8.5 1.1 16.4 1 24.2.2 7.8-.8 15.6-2.4 24.1-4.7 8.9-2.5 16.2-5.7 23.2-9.3 7-3.7 13.7-7.9 21-13.5 7-5.2 13.2-10.8 18.9-17.2 5.7-6.4 10.9-13.5 15.5-21.7 1.2-2.2 2.2-4.5 2.9-6.2.2-.4.4-1 .7-1.7.3-.7.6-1.5 1-2.3.7-1.6 1.5-3.3 1.9-4.4 3.1-6.9 5.6-13.7 7.6-20.7 1-3.5 1.8-7 2.5-10.6.3-1.8.5-3.6.8-5.4.1-.9.2-1.8.3-2.8.1-.9.1-1.9.2-2.8.3-1.4.2-4 0-5.9"/><path class="st1" d="M292.3 157.7c0-.3 0-.5-.1-.8-.1-1.7-.4-2.7-.6-2.2-.7 1.6-1.3 3.4-1.9 5.5-.3 1.1-.7 2.2-1 3.4-.4 1.2-.7 2.4-1.1 3.7-.3 1.3-.8 2.6-1.2 3.9-.4 1.4-.8 2.8-1.3 4.2-.5 1.4-1 2.9-1.5 4.3-.5 1.5-1.1 3-1.6 4.5-2.2 5.7-4.5 12.2-7.5 18.8-3 6.7-6.7 13.5-11.2 20-4.3 6.4-9 11.5-13.7 15.5-.2.1-.2.2-.2.2-.6.5-1.2 1-1.9 1.7-1.2.9-2.3 1.8-3.5 2.7-.8.6-1.6 1.1-2.4 1.6-.8.5-1.5 1-2.3 1.5-1.6.9-3 1.8-4.5 2.5s-2.9 1.4-4.2 1.9c-1.3.6-2.7 1-4 1.5-.9.3-1.8.5-2.6.8l-2.7.6c-.9.2-1.9.4-2.8.6-1 .2-2 .4-3.1.7-4.3 1.2-9.5 2.9-17.2 6-1.1.5-2.3.9-3.4 1.3s-2.2.9-3.4 1.2c-1.1.4-2.3.7-3.4 1.1l-1.7.6-1.7.5c-1.1.3-2.3.6-3.4.9-1.1.3-2.3.5-3.4.8-2.3.6-4.6.9-6.9 1.3-1.2.2-2.3.3-3.5.4-1.2.1-2.4.3-3.5.4-1.2.1-2.4.1-3.6.2-1.2.1-2.4.1-3.6 0-1.2 0-2.4-.1-3.6-.1-1.2 0-2.4-.2-3.6-.3-1.2-.1-2.4-.2-3.7-.4-1.2-.2-2.4-.4-3.7-.7-6.8-1.5-12.8-3.4-18.7-5.6-5.9-2.3-11.5-5-17.6-8.5-.9-.5-2.9-1.9-5-3.3-1.1-.7-2.1-1.5-3-2.2-.9-.7-1.8-1.2-2.3-1.6-6.6-4.4-13-10.1-18.4-15.9-5.5-5.8-10.1-11.5-13.9-15.6-5-7.3-7.8-13.5-10.1-19.3-.6-1.4-1.2-2.9-1.7-4.3-.5-1.5-1.1-2.9-1.6-4.4-.5-1.5-1-3-1.6-4.5-.5-1.6-1-3.2-1.6-4.9-2.8-8.6-4.7-17.8-5.3-27.6-.6-9.8.3-20.2 3.2-30.9 1.7-6.1 3.8-11.8 6.4-17.3 2.6-5.4 5.7-10.5 9.2-15.5.6-.9 1.8-2.2 3.2-3.8.7-.8 1.5-1.6 2.4-2.4.8-.8 1.7-1.7 2.6-2.5 1.8-1.6 3.7-3.3 5.4-4.6.8-.7 1.6-1.3 2.3-1.8.7-.5 1.3-.9 1.8-1.3.9-.6 1.8-1.3 2.7-2 .9-.7 1.9-1.4 2.8-2.2 1.9-1.6 4-3.2 6-4.9 1-.8 2.1-1.6 3.1-2.4l1.5-1.2c.5-.4 1-.8 1.5-1.1 1-.8 2-1.5 2.9-2.2.9-.7 1.9-1.3 2.7-2 5.3-4.1 11.2-7.7 17.7-10.7 6.6-3 13.9-5.5 22.1-7.2 2.9-.4 5.8-.7 8.7-.8 2.9-.2 5.9 0 9.2-.1 7.8-.1 14.5.2 21 .8 3.3.3 6.4.8 9.7 1.3 1.6.3 3.2.7 4.8 1 1.6.3 3.3.9 4.9 1.3 6.2 2 11.3 4.2 15.7 6.3 1.1.5 2.1 1 3.1 1.5s1.9 1 2.8 1.5c.9.5 1.8.9 2.6 1.4.8.5 1.6.9 2.3 1.4l2.1 1.2c.7.4 1.2.8 1.8 1.2 1.2.7 2.2 1.4 3.1 2 1.8 1.2 3.2 2.2 4.2 2.9 1.1.7 1.8 1.2 2.3 1.6s.8.5 1 .6c.4.2.4.2.8.6 2.1 1.7 3.1 3.3 4.4 4.9 1.3 1.6 2.4 3.5 4.6 6 5.9 6.7 11.4 13.5 15.1 18.2 5.4 6.9 10.5 15.4 14.4 25.1 1 2.4 1.8 5 2.6 7.5.4 1.3.7 2.6 1.1 3.9.3 1.3.7 2.6.9 4 .1.6.2 1.1.3 1.7.2 2.5.5 5.3 1.1 8.8.1.6.2 1.3.3 2 0 1.4.1 2.7.1 4.1 0-.3.1-.6.1-.9v.3c.1.9.2 1.8.2 2.5s.1 1.2.2 1.5c.1 1.9.1 5.4.3 5.1.3.2.6-2.2.8-3.6.1-1 .2-1.9.3-2.9.1-.9.1-1.9.2-2.8.1-.9.1-1.8.2-2.8l.1-1.4v-1.4-5.6c-.1-1.9-.2-3.8-.4-5.8-.9-9.5-3.2-19.4-6.9-29.2-.5-1.2-.9-2.5-1.4-3.7-.5-1.2-1.1-2.4-1.6-3.7l-.8-1.8-.9-1.8c-.6-1.2-1.2-2.4-1.9-3.6-.6-1.2-1.4-2.4-2.1-3.6-.7-1.2-1.4-2.4-2.2-3.6-1.5-2.3-3.1-4.7-4.8-6.9-.7-.9-1.3-1.7-2-2.5s-1.4-1.5-2-2.2c-1.4-1.4-2.7-2.8-4.1-4.1-1.7-1.6-3.3-3.3-5.2-5-.9-.9-1.8-1.7-2.8-2.6-1-.8-1.9-1.7-2.9-2.6-1.9-1.8-4-3.3-6.1-4.8-1-.8-2.1-1.4-3.1-2.1-1-.7-2.1-1.3-3.1-1.9-1.1-.6-2.9-1.7-4.1-2.7-5.9-4.7-12-8.9-18.6-12.5-6.5-3.6-13.4-6.7-20.9-9.3-1.2-.4-2.7-1-4.6-1.5-1.9-.5-4.1-1.1-6.5-1.6-4.8-1-10.5-2-16.2-2.4l-4.2-.3c-1.4 0-2.8-.1-4.1-.1-1.4 0-2.7-.1-4-.1-1.3 0-2.5.1-3.7.1-1.2 0-2.3 0-3.3.1s-2 .2-2.9.2c-1.8.2-3.2.2-4.2.4-8 1-14.5 2.8-19.7 4.4-2.6.9-4.9 1.8-6.9 2.5-2 .9-3.7 1.7-5.1 2.4-1.5.7-2.6 1.4-3.6 1.9-1 .6-1.7 1-2.3 1.4-.2.1-.3.2-.5.3-1.3.6-2.6 1.3-3.9 2-.4.3-1.4.8-2.3 1.4-1 .6-1.9 1.2-2.3 1.5-1.5.8-2.8 1.5-4 2.1-1.3.7-2.5 1.4-3.9 2.1-2.2 1-4.6 2.4-7.1 3.8-1.3.7-2.5 1.6-3.8 2.4-1.3.9-2.6 1.7-3.9 2.7-5.2 3.8-10.5 8.6-15.6 13.7s-9.6 10.9-13.8 16.5l-3 4.2-2.7 4.2c-.9 1.3-1.7 2.7-2.5 4-.8 1.3-1.6 2.6-2.4 3.8-2.4 4.5-6 11.3-8 18.3-.4 1.3-.8 2.7-1.2 4.2-.4 1.5-.8 2.9-1.2 4.4-.3 1.5-.6 2.9-.9 4.3-.3 1.4-.5 2.7-.7 3.8-1 8.6-.7 16.7 0 24.4v-1.2c0-.8 0-1.9.1-3.3.1-1.7.3-3.8.5-5.9-.2 5.9 0 11.5.6 16.8.3 2.3.5 4.1.7 5.6.3 1.5.5 2.6.7 3.6.2 1 .3 1.8.4 2.7.1.8.2 1.7.3 2.7.3 1.6 2.6 6 6.3 16.9.7 1.9 1.4 4 2.1 6.1.7 2.1 1.6 4.3 2.3 6.5.8 2.1 1.8 4.2 2.6 6.2.9 2 1.9 3.7 2.8 5.3.2.4.4.8.7 1.3.3.4.5.9.8 1.4.6 1 1.2 2 1.9 3.2.6 1.2 1.4 2.3 2.2 3.6.8 1.2 1.6 2.6 2.5 3.9 3.6 5.4 8.2 11.3 13.2 16.8s10.5 10.6 15.7 14.7c1.3 1.1 2.6 2 3.8 2.9 1.2.9 2.4 1.8 3.5 2.5 1.1.8 2.2 1.5 3.2 2.1.5.3 1 .6 1.4.9.5.3.9.5 1.3.8 6.3 3.8 12.1 6.6 17.4 8.9 1.3.6 2.7 1.1 3.9 1.7 1.3.5 2.6 1 3.8 1.4 2.5 1 5 1.7 7.4 2.5 9.7 3 18.8 5.1 30.1 6.4 8.5 1.1 16.4 1 24.2.2 7.8-.8 15.6-2.4 24.1-4.7 8.9-2.5 16.2-5.7 23.2-9.3 7-3.7 13.7-7.9 21-13.5 7-5.2 13.2-10.8 18.9-17.2 5.7-6.4 10.9-13.5 15.5-21.7 1.2-2.2 2.2-4.5 2.9-6.2.2-.4.4-1 .7-1.7.3-.7.6-1.5 1-2.3.7-1.6 1.5-3.3 1.9-4.4 3.1-6.9 5.6-13.7 7.6-20.7 1-3.5 1.8-7 2.5-10.6.3-1.8.5-3.6.8-5.4.1-.9.2-1.8.3-2.8.1-.9.1-1.9.2-2.8.2-1.4.1-4 0-5.9"/></svg>